<svg xmlns="http://www.w3.org/2000/svg" viewBox="0 0 1200 630" role="img" aria-labelledby="title desc">
  <title id="title">Springs Garage Door Services social share image</title>
  <desc id="desc">Promotional social card for Springs Garage Door Services in Colorado Springs.</desc>
  <defs>
    <linearGradient id="bg" x1="0" y1="0" x2="1" y2="1">
      <stop offset="0%" stop-color="#050608"/>
      <stop offset="60%" stop-color="#0d1117"/>
      <stop offset="100%" stop-color="#141922"/>
    </linearGradient>
    <linearGradient id="line" x1="0" y1="0" x2="1" y2="0">
      <stop offset="0%" stop-color="#d61d17"/>
      <stop offset="100%" stop-color="#f6bf2a"/>
    </linearGradient>
    <radialGradient id="goldGlow" cx="0.8" cy="0.2" r="0.8">
      <stop offset="0%" stop-color="#f6bf2a" stop-opacity="0.32"/>
      <stop offset="100%" stop-color="#f6bf2a" stop-opacity="0"/>
    </radialGradient>
    <radialGradient id="redGlow" cx="0.15" cy="0.9" r="0.8">
      <stop offset="0%" stop-color="#d61d17" stop-opacity="0.22"/>
      <stop offset="100%" stop-color="#d61d17" stop-opacity="0"/>
    </radialGradient>
  </defs>
  <rect width="1200" height="630" fill="url(#bg)"/>
  <rect width="1200" height="630" fill="url(#goldGlow)"/>
  <rect width="1200" height="630" fill="url(#redGlow)"/>
  <g opacity="0.08" stroke="#ffffff">
    <path d="M0 90h1200M0 180h1200M0 270h1200M0 360h1200M0 450h1200M0 540h1200"/>
    <path d="M120 0v630M240 0v630M360 0v630M480 0v630M600 0v630M720 0v630M840 0v630M960 0v630M1080 0v630"/>
  </g>
  <rect x="72" y="72" width="1056" height="486" rx="32" fill="#0f141c" fill-opacity="0.74" stroke="#ffffff" stroke-opacity="0.08"/>
  <path d="M102 104h996" stroke="url(#line)" stroke-width="6" stroke-linecap="round"/>
  <g transform="translate(110 126)">
    <rect width="250" height="118" rx="26" fill="#121924" stroke="#f6bf2a" stroke-opacity="0.24"/>
    <image href="logo.webp" x="18" y="16" width="214" height="86" preserveAspectRatio="xMidYMid meet"/>
  </g>
  <g font-family="'Arial', sans-serif" fill="#f7f3e8">
    <text x="110" y="320" font-size="68" font-weight="700">Owner-led garage door service</text>
    <text x="110" y="394" font-size="68" font-weight="700">for Colorado Springs</text>
    <text x="110" y="464" font-size="30" fill="#d4d0c7">Repair, replacement, installation, openers, maintenance, and spring service</text>
    <text x="110" y="512" font-size="28" fill="#ffde7f">719-308-9951  |  springsgaragedoorservices@gmail.com</text>
  </g>
  <g transform="translate(790 170)">
    <rect width="250" height="290" rx="28" fill="#141b25" stroke="#ffffff" stroke-opacity="0.08"/>
    <path d="M42 132 125 70l83 62" fill="none" stroke="#f6bf2a" stroke-linecap="round" stroke-linejoin="round" stroke-width="16"/>
    <path d="M62 138v106h126V138" fill="none" stroke="#f7f3e8" stroke-linecap="round" stroke-linejoin="round" stroke-width="12"/>
    <path d="M92 244v-74h66v74" fill="none" stroke="url(#line)" stroke-linecap="round" stroke-linejoin="round" stroke-width="12"/>
    <path d="M98 186h54M98 204h54" fill="none" stroke="#f6bf2a" stroke-linecap="round" stroke-width="6" opacity=".85"/>
    <circle cx="197" cy="55" r="10" fill="#d61d17"/>
    <text x="34" y="42" font-family="'Arial', sans-serif" font-size="20" font-weight="700" fill="#ffde7f">SERVING LOCAL HOMEOWNERS</text>
  </g>
</svg>