<svg xmlns="http://www.w3.org/2000/svg" width="158" height="50" viewBox="0 0 158 50">
                            <defs>
                                <style>
                                    .a,
                                    .c {
                                        fill: #004b85;
                                    }
                                    .a {
                                        fill-rule: evenodd;
                                    }
                                    .b {
                                        fill: #999b9e;
                                    }
                                </style>
                            </defs>
                            <g transform="translate(-15.135 -5.346)">
                                <g transform="translate(15.135 5.346)">
                                    <g transform="translate(24.556 17.632)">
                                        <path class="a" d="M-73.426-50.137l3.853-7.025,3.926,7.025Zm-4.307,8.081,1.967-3.323h12.311l1.962,3.323h6.76L-65.57-61.883h-7.856L-84.454-42.055Z" transform="translate(84.454 61.883)"></path>
                                    </g>
                                    <g transform="translate(24.556 17.632)">
                                        <path class="a" d="M-73.426-50.137l3.853-7.025,3.926,7.025Zm7.856-11.747h-7.856L-84.454-42.055h6.722l1.967-3.323h12.311l1.962,3.323h6.76Z" transform="translate(84.454 61.883)"></path>
                                    </g>
                                    <g transform="translate(44.984 17.634)"><path class="a" d="M-115.411,19.79v-7.1L-104.231,0h-7.287l-6.952,7.854L-125.115,0h-7.631l11.18,12.689v7.1Z" transform="translate(132.746)"></path></g>
                                    <g transform="translate(73.115 17.634)"><path class="a" d="M-181.8,19.79V0h-6.156V14.505L-199.967,0h-9.142V19.79h6.156V5.363L-190.83,19.79Z" transform="translate(209.108)"></path></g>
                                    <g transform="translate(101.897 17.219)">
                                        <path class="a" d="M-68.174,20.281h9.855l1.21-.038,1.13-.076,1.023-.109.906-.195.866-.221.72-.346.678-.415.526-.491.458-.522.377-.611.3-.715.229-.791.152-.871.076-.94.034-1.059V7.327l-.034-1.057-.076-.945-.152-.868-.229-.794-.3-.679-.377-.605-.458-.564-.526-.454-.64-.378-.757-.34-.832-.226L-54.92.228-55.935.115-57.069.038-58.318,0h-9.893l-1.248.038-1.094.077-1.02.113-.943.189-.834.226-.716.34-.677.378-.568.492-.494.566-.376.641-.264.756-.227.793-.152.905L-76.9,6.5l-.038,1.1v5.4l.038,1.02.076.945.152.828.227.8.3.677.378.611.455.522.568.491.677.415.8.346.829.221.947.195,1.015.109,1.1.076Zm7.589-4.986h-5.322l-.642-.035-.608-.038-.564-.076-.49-.077-.453-.113-.379-.152-.34-.187-.338-.228-.265-.264-.187-.262-.19-.379-.152-.378-.073-.454-.08-.49V8.2l.08-.529.073-.456.152-.415.148-.377.23-.3.226-.264.3-.227.339-.226.418-.152.452-.114.491-.076.528-.075.6-.037.685-.038h5.36l.644.038.6.037.529.075.49.076.458.114.411.189.342.189.3.188.263.264.224.341.156.341.152.415.077.454.072.489v3.968l-.072.527-.077.454-.152.377-.156.378-.224.3-.263.264-.3.228-.342.187-.411.152-.458.113-.49.077-.529.076-.6.038Z" transform="translate(76.938)"></path>
                                    </g>
                                    <g transform="translate(129.768 17.632)">
                                        <path class="a" d="M-41.228,19.828V4.911H-31.4l.567.038.449.114.38.149.3.266.228.3.193.381.068.451.042.526-.042.643-.068.607-.156.452-.224.34-.3.264-.383.189-.482.112-.567.039h-1.629l-1.053.038H-38.96v4.908h7.627l.608.076.453.116.377.188.3.263.187.379.118.453.035.563v3.062h6.194V15.749l-.039-.718-.148-.681-.264-.563-.343-.491-.45-.457-.568-.341-.642-.3-.754-.226.865-.265.718-.379.607-.49.452-.605.338-.717.229-.868.115-1.058.036-1.133-.036-.908-.078-.83-.115-.755-.186-.68-.262-.605-.34-.528L-24.3,1.7l-.457-.38-.525-.337-.608-.3-.643-.229L-27.29.3l-.867-.151-.906-.076L-30.083,0H-47.421V19.828Z" transform="translate(47.421)"></path>
                                    </g>
                                    <g transform="translate(0 17.632)">
                                        <path class="a" d="M-41.25,19.828V4.911h9.82l.566.038.452.114.378.149.3.266.226.3.19.381.072.451.042.526-.042.643-.072.607-.153.452-.188.34-.3.264-.381.189-.486.112-.6.039h-1.625l-1.058.038h-4.871v4.908h7.631l.6.076.455.116.377.188.3.263.19.379.115.453.034.563v3.062h6.2V15.749l-.038-.718-.152-.681-.263-.563-.342-.491-.453-.457L-24.9,12.5l-.64-.3-.757-.226.868-.265.719-.379.6-.49.453-.605.338-.717.229-.868.114-1.058.034-1.133-.034-.908-.077-.83-.114-.755-.189-.68-.263-.605-.343-.528-.377-.453-.452-.38-.529-.337-.6-.3-.643-.229L-27.315.3l-.867-.151-.909-.076L-30.11,0H-47.446V19.828Z" transform="translate(47.446)"></path>
                                    </g>
                                    <g transform="matrix(1, 0.003, -0.003, 1, 3.846, 6.202)">
                                        <path class="b" d="M71.107,1.144c27.487-.091,52.509,4.96,71.171,8.31C125.153,3.586,99.62-.093,71.106,0S17.082,3.945,0,9.927C18.638,6.453,43.623,1.236,71.107,1.144" transform="translate(0 0)"></path>
                                    </g>
                                    <g transform="translate(51.194 15.334) rotate(-147.31)"><path class="c" d="M0,0H8.664l5.755,8.967-8.972-.48Z" transform="translate(0 0)"></path></g>
                                    <g transform="translate(155.033 34.753)">
                                        <path class="c" d="M-7.879-10.609v-.525h.345c.179,0,.368.038.368.249,0,.261-.194.276-.409.276Zm0,.215h.29l.449.732h.285l-.481-.743a.441.441,0,0,0,.439-.467c0-.333-.2-.48-.595-.48h-.646v1.69h.26Zm.307,1.347A1.455,1.455,0,0,0-6.1-10.51a1.45,1.45,0,0,0-1.476-1.452A1.459,1.459,0,0,0-9.063-10.51,1.463,1.463,0,0,0-7.572-9.047m-1.2-1.464a1.18,1.18,0,0,1,1.2-1.211A1.18,1.18,0,0,1-6.386-10.51,1.183,1.183,0,0,1-7.572-9.289a1.183,1.183,0,0,1-1.2-1.222" transform="translate(9.063 11.963)"></path>
                                    </g>
                                    <g transform="translate(72.332 41.47)">
                                        <path class="b" d="M-26.858-65.321a8.176,8.176,0,0,1,2.54.364l-.377,1.568a5.222,5.222,0,0,0-2.018-.425q-1.944,0-1.944,2.649a3.96,3.96,0,0,0,.443,2.018,1.343,1.343,0,0,0,1.2.753,2.233,2.233,0,0,0,1.057-.255V-60a6.9,6.9,0,0,0-.072-1.215h2.175A6.834,6.834,0,0,0-23.929-60v2.018a6.216,6.216,0,0,1-1.664.856,5.41,5.41,0,0,1-1.762.334,3.186,3.186,0,0,1-2.594-1.137,4.762,4.762,0,0,1-.942-3.129,4.432,4.432,0,0,1,1.039-3.171,3.933,3.933,0,0,1,2.995-1.094" transform="translate(30.892 65.321)"></path>
                                    </g>
                                    <g transform="translate(79.225 41.701)">
                                        <path class="b" d="M-29.781-20.617h1.531l-.74-2.636Zm-.5-3.718q.267-.7.365-1.069h1.933l2.284,6.172a18.707,18.707,0,0,0,.79,1.932h-2.467c-.017-.106-.072-.36-.171-.766l-.1-.387-.195-.67-.109-.011c-.113,0-.3,0-.571-.012h-.559c-.591,0-.932,0-1.021.012l-.134.011-.316,1.07-.11.328c-.007.057-.028.155-.06.292l-.035.133h-2.285a12.937,12.937,0,0,0,.571-1.324l.219-.6Z" transform="translate(33.038 25.404)"></path>
                                    </g>
                                    <g transform="translate(87.625 41.701)">
                                        <path class="b" d="M-14.483-49.542v1.871h.328q1.156,0,1.155-.953,0-.918-1.082-.918Zm-2.1-.231a7.412,7.412,0,0,0-.073-1.214H-13.7a3.511,3.511,0,0,1,1.834.375,1.908,1.908,0,0,1,.912,1.714q0,1.4-1.678,1.944a1.887,1.887,0,0,1,1.349,1.2l.547,1.58c0,.016.05.167.145.45a5.242,5.242,0,0,0,.328.838h-2.309a8.481,8.481,0,0,0-.266-.983l-.377-1.2a2.769,2.769,0,0,0-.4-.918.755.755,0,0,0-.583-.2h-.28V-44.1a6.884,6.884,0,0,0,.072,1.215h-2.248a7.552,7.552,0,0,0,.073-1.215Z" transform="translate(16.658 50.988)"></path>
                                    </g>
                                    <g transform="translate(93.926 41.701)">
                                        <path class="b" d="M-29.78-20.617h1.531l-.741-2.636Zm-.5-3.718q.267-.7.365-1.069h1.932l2.285,6.172a18.673,18.673,0,0,0,.79,1.932h-2.467c-.017-.106-.073-.36-.171-.766l-.1-.387-.195-.67-.108-.011c-.114,0-.3,0-.571-.012h-.559c-.591,0-.932,0-1.02.012l-.134.011-.316,1.07-.109.328q-.012.086-.061.292l-.036.133h-2.285a12.818,12.818,0,0,0,.571-1.324l.219-.6Z" transform="translate(33.038 25.404)"></path>
                                    </g>
                                    <g transform="translate(101.628 41.47)">
                                        <path class="b" d="M-26.861-65.321a8.166,8.166,0,0,1,2.539.364l-.377,1.568a5.219,5.219,0,0,0-2.017-.425q-1.943,0-1.944,2.649a3.966,3.966,0,0,0,.443,2.018,1.346,1.346,0,0,0,1.2.753,2.236,2.236,0,0,0,1.057-.255V-60a7.085,7.085,0,0,0-.072-1.215h2.174A6.958,6.958,0,0,0-23.933-60v2.018a6.2,6.2,0,0,1-1.664.856,5.405,5.405,0,0,1-1.762.334,3.188,3.188,0,0,1-2.594-1.137,4.759,4.759,0,0,1-.941-3.129,4.434,4.434,0,0,1,1.039-3.171,3.935,3.935,0,0,1,3-1.094" transform="translate(30.896 65.321)"></path>
                                    </g>
                                    <g transform="translate(109.514 41.701)">
                                        <path class="b" d="M-.482-51.435a7.6,7.6,0,0,0-.072-1.228H4.562v1.556c.041,0,.006,0-.1-.007l-.4-.018-.717-.025H1.658v1.629H3.881a2.275,2.275,0,0,0,.329-.018l.121-.017v1.591c-.315-.032-.653-.048-1.009-.048H1.658v1.895H4.222a3.676,3.676,0,0,0,.51-.036v1.6H-.554a7.641,7.641,0,0,0,.072-1.216Z" transform="translate(0.554 52.663)"></path>
                                    </g>
                                    <g transform="translate(118.371 41.701)">
                                        <path class="b" d="M-14.726-49.442v5.078h.644a3.459,3.459,0,0,0,1.251-.163,1.187,1.187,0,0,0,.608-.625,4.01,4.01,0,0,0,.328-1.738q0-1.932-.972-2.346a3.934,3.934,0,0,0-1.458-.206Zm-2.139-.243a7.554,7.554,0,0,0-.072-1.215h3.78a3.622,3.622,0,0,1,1.9.4,3.857,3.857,0,0,1,1.6,3.548,5.037,5.037,0,0,1-.564,2.423A2.958,2.958,0,0,1-11.737-43.1a6.1,6.1,0,0,1-2.174.3h-3.026a7.6,7.6,0,0,0,.072-1.2Z" transform="translate(16.938 50.9)"></path>
                                    </g>
                                    <g transform="translate(126.002 41.47)">
                                        <path class="b" d="M-25.564-52.277a1.291,1.291,0,0,0-1.172.748,4.325,4.325,0,0,0-.42,2.1q0,2.672,1.446,2.674,1.567,0,1.568-2.905,0-2.613-1.422-2.613M-28.2-46.068a4.505,4.505,0,0,1-1.2-3.389,4.507,4.507,0,0,1,1.063-3.172,3.761,3.761,0,0,1,2.911-1.154,3.235,3.235,0,0,1,2.6,1.094,4.56,4.56,0,0,1,.936,3.062,4.636,4.636,0,0,1-1.044,3.208,3.673,3.673,0,0,1-2.881,1.167,3.279,3.279,0,0,1-2.382-.815" transform="translate(29.404 53.783)"></path>
                                    </g>
                                    <g transform="translate(133.179 41.47)">
                                        <path class="b" d="M-25.568-52.277a1.29,1.29,0,0,0-1.173.748,4.324,4.324,0,0,0-.421,2.1q0,2.672,1.447,2.674,1.567,0,1.567-2.905,0-2.613-1.421-2.613m-2.638,6.209a4.507,4.507,0,0,1-1.2-3.389,4.5,4.5,0,0,1,1.063-3.172,3.76,3.76,0,0,1,2.91-1.154,3.24,3.24,0,0,1,2.6,1.094,4.568,4.568,0,0,1,.935,3.062,4.631,4.631,0,0,1-1.045,3.208,3.67,3.67,0,0,1-2.879,1.167,3.279,3.279,0,0,1-2.382-.815" transform="translate(29.408 53.783)"></path>
                                    </g>
                                    <g transform="translate(141.782 41.701)">
                                        <path class="b" d="M-14.483-49.542v1.871h.328q1.156,0,1.155-.953,0-.918-1.082-.918Zm-2.1-.231a7.487,7.487,0,0,0-.072-1.214H-13.7a3.509,3.509,0,0,1,1.834.375A1.908,1.908,0,0,1-10.96-48.9q0,1.4-1.677,1.944a1.888,1.888,0,0,1,1.349,1.2l.547,1.58q0,.024.146.45a5.2,5.2,0,0,0,.328.838h-2.309a8.524,8.524,0,0,0-.267-.983l-.377-1.2a2.76,2.76,0,0,0-.4-.918.755.755,0,0,0-.583-.2h-.279V-44.1a6.884,6.884,0,0,0,.072,1.215h-2.248a7.628,7.628,0,0,0,.072-1.215Z" transform="translate(16.658 50.988)"></path>
                                    </g>
                                    <g transform="translate(148.49 41.47)">
                                        <path class="b" d="M-17.229,8.53a8.219,8.219,0,0,1-2.588-.425l.4-1.543a5.205,5.205,0,0,0,1.969.462,1.352,1.352,0,0,0,.825-.226.709.709,0,0,0,.3-.6.807.807,0,0,0-.3-.6,7.272,7.272,0,0,0-1.21-.783A3.694,3.694,0,0,1-19.453,3.39a2.384,2.384,0,0,1-.218-1.008A2.157,2.157,0,0,1-18.906.65,3.033,3.033,0,0,1-16.877,0a9.521,9.521,0,0,1,2.248.3l-.377,1.5-.194-.061a5.054,5.054,0,0,0-1.337-.279,1.146,1.146,0,0,0-.686.188.58.58,0,0,0-.261.492.621.621,0,0,0,.231.5,11.21,11.21,0,0,0,1.3.79,4.432,4.432,0,0,1,1.4,1.124,2.2,2.2,0,0,1,.432,1.355,2.558,2.558,0,0,1-.523,1.6,2.391,2.391,0,0,1-1.384.886,5.059,5.059,0,0,1-1.2.134" transform="translate(19.817)"></path>
                                    </g>
                                </g>
                            </g>
                        </svg>